<?xml version="1.0" encoding="UTF-8"?>
<svg id="Layer_2" xmlns="http://www.w3.org/2000/svg" viewBox="0 0 312.01 126.49">
  <defs>
    <style>
      .cls-1 {
        fill: #fff;
      }
    </style>
  </defs>
  <g id="Layer_1-2" data-name="Layer_1">
    <g>
      <g>
        <path class="cls-1" d="M175.63,11.4s2.16,4.34,3.67,5.74c0,0,.64.57,1.26.75.43.12,1.28.15,2.31.73,0,0,.17,1.67.06,2.29,0,0-.06.27-.48.04-.42-.22-1.65-.79-2.47-.46,0,0-.57.24-.77,1.14,0,0-.14.62-.23,1.37-.09.75-.29,2.71-1.25,3.15-.26.12-1,.07-1.72-1.16-.73-1.23-3.87-7.59-3.87-7.59l-.02-2.4s2.13,4.4,2.59,5.24c.46.84,1.59,3.26,2.42,3.41.83.15,1.23-.84,1.3-1.45.07-.61.33-2.38.55-2.9,0,0-1.96-2.18-3.06-4.69,0,0-.07.29.04,1.08.11.79.35,2.82.38,3.15.04.59-.37-.44-.5-1.14-.15-.85-.44-2.36-.42-6.16,0,0,.04-.47.21-.12"/>
        <path class="cls-1" d="M182.16,7.97c-.11-.12-.25,1.24-.23,2.28.01,1.05.18,2.03.91,4.15,1.26,3.65,2.21,7.29,2.36,7.94s.23.41.23.41c.05-.47-.15-2.46-.36-3.52-.21-1.06-2.13-6.81-2.35-7.48-.22-.66-.16-.73-.16-.73,2.66,2.71,3.5,4.61,3.5,4.61,1.68,3.04.93,5.52.83,5.89-1.32,5.18-9.48,6.86-10.14,6.98-.65.12-.27.17-.27.17,7.3.29,9.32-2.61,9.65-3.09,2.35-3.45,1.55-7.89,1.47-8.38-.82-5.01-5.43-9.23-5.43-9.23"/>
        <path class="cls-1" d="M173.99,21.01s.61,2.37-1.05,3.66c0,0-.03-1.43-.38-2.02,0,0-.28-.5-.22.13.07.63.2,2.14-.07,2.7-.3.64-1.16,1.49-1.59,1.01-.43-.48-.43-.93-.57-1.51,0,0-.16-1.33-.44-1.69,0,0-.61-.22-1.46,1.16-.84,1.38-1.27,2.57-1.41,2.84-.13.26-2.09,4.44-4.49,6.05,0,0-2.23,1.55-4.92.64-.46-.16-.86-.39-1.35-.71-.11-.08-2.72-2.09-1.53-5.79,0,0,.84-2.85,4.21-4.58,0,0,1.62-.74,2.34-1.06.71-.32,1.26-.65.44-.45-.81.2-4.14,1-6.23,3.63-.76.96-3.07,4.87-.61,8.97,0,0,1.6,2.82,5.38,2.72,0,0,2.48.04,4.71-2.9,0,0,1.2-1.58,2.11-3.56.9-1.99,1.75-4,2.5-4.38,0,0,.25-.13.3.2.04.33.39,2.26,1.12,2.8,0,0,.51.47,1.22-.06,0,0,.45-.28.82-1.28,0,0,1.38-1,1.66-2.88.05-.36.21-1.77.09-2.72l-.61-.98"/>
        <path class="cls-1" d="M178.43,10.6s-.74-5.91-.16-9.6c0,0,.33-2.31-.29.1-.62,2.41-2.33,11.64-12.22,16.15,0,0,1.54.11,5.42-2.47,3.89-2.59,5.56-7.24,6.45-10.31,0,0,.04,4.3.56,6.12,0,0,.27.9.24,0"/>
        <path class="cls-1" d="M170.83,18.42l-1.51-.62-.13.07s-.66,1.68-.73,1.86v.04s-.07-.04-.07-.04l-1.5-.61-.13.07s-.66,1.68-.73,1.86c-.07.18,0,.22,0,.22,0,0,1.11.45,1.35.54.24.09.29-.02.29-.02,0,0,.71-1.63.79-1.82v-.03s1.12.46,1.36.55c.24.09.29-.02.29-.02,0,0,.71-1.63.78-1.82.07-.19-.06-.24-.06-.24"/>
        <path class="cls-1" d="M169.38,34.71l-1.48-.6-.12.07s-.65,1.65-.72,1.82c-.07.17,0,.21,0,.21,0,0,1.09.45,1.33.53.24.09.28-.01.28-.01,0,0,.7-1.6.77-1.78.07-.18-.06-.23-.06-.23"/>
        <path class="cls-1" d="M146.74,9.09c-.11-.13-.26,1.3-.24,2.4.02,1.1.19,2.13.96,4.36,1.32,3.84,2.33,7.66,2.48,8.34.16.68.24.43.24.43.05-.49-.16-2.58-.38-3.69-.22-1.12-2.24-7.16-2.47-7.86-.23-.7-.17-.77-.17-.77,2.8,2.85,3.68,4.84,3.68,4.84,1.76,3.2.98,5.8.88,6.19-1.38,5.45-9.97,7.21-10.65,7.34-.68.13-.28.17-.28.17,7.67.3,9.79-2.74,10.14-3.25,2.47-3.63,1.63-8.29,1.55-8.8-.86-5.27-5.71-9.71-5.71-9.71"/>
        <path class="cls-1" d="M136.54,17.46c.54-3.04-.06-5.32-.27-5.89-.2-.57-2.06,1.4-2.06,1.4-1.8,1.89-1.59,4.62-1.59,4.62.04.96.2,1.9.43,2.81,0,0-.75.62-1.18.15-.24-.27-.36-.52-.5-.77-.22-.38-.3-.92-.3-.92l-.13.03c-.22.56-.44,1.76-.43,2.19.02.63.43,1.1,1.15,2.23.72,1.14.68,1.66.68,1.66-.12.48-.65,1.37-.65,1.37-1.4,2.23-3.15,2.09-3.15,2.09-3.12-.46-3.56-3.62-3.56-3.62-.37-2.04,1.39-4.27,2.15-5.56,1.61-2.74,1.53-5.43,1.46-6.25-.07-.83-.24-.32-.25-.04-.12,2.64-1.69,5.04-1.69,5.04-1.29,1.91-1.82,3.31-2.03,4.06-1.2,4.35.77,6.87,1.02,7.16,1.82,2.11,3.48,1.64,3.48,1.64,3.14-.86,3.98-5.23,4.01-6.49,0-.23-.04-1.02-.14-1.49,0,0,.3-.11.74-.4.89,2.33,1.69,3.16,1.69,3.16.33.43-.05-.72-.21-1.19-.15-.41-.53-1.28-.98-2.35.86-.75,1.89-2.16,2.34-4.63M133.39,19.36c-.09-.57.02-1.4.02-1.4.16-1.43,1.1-2.66,1.74-3.22.65-.57.96-.66.96-.66-.07,1.1-.42,2.1-.42,2.1-.56,1.76-1.38,2.96-2.16,3.77-.09-.37-.13-.59-.13-.59"/>
        <path class="cls-1" d="M140.16,9.52s3.11,2.78,4.21,6.99c.2.77.23,2.22.03,2.85,0,0,1.3-1.36,1.72-1.06.43.3.23,6.76-2.85,10.27-.88,1.01-2.09,1.82-2.95.6-.86-1.23-2.88-5.4-3.22-6.26l-.27-2.65s1.63,3.31,2.55,4.87c.93,1.55,1.36,2.42,2.65,1.75,0,0,2.32-1.22,3.44-5.83,0,0-2.65,1.82-3.54,3.05v-2.62s1.79-2.42,2.09-3.21c0,0-.86-3.08-3.48-5.73,0,0,.33,3.37.27,4.14,0,0-.13,1.09-.27-.06-.14-1.22-.42-3.76-.47-4.63-.07-1.31,0-2.19,0-2.19,0-.35.05-.29.06-.26"/>
        <path class="cls-1" d="M136.96,10.49c-.02.41.08.11.08.11.36-1.05.11-2.4,0-2.83-.61-2.33-2.52-3.7-2.52-3.7l-.05.02v1.19c2.73,2.17,2.52,4.79,2.5,5.21"/>
        <path class="cls-1" d="M141.13,17.36l-1.55-.63-.13.07s-.68,1.73-.76,1.91c-.07.18.01.22.01.22,0,0,1.15.47,1.39.56.25.09.3-.02.3-.02,0,0,.74-1.68.81-1.87.07-.19-.07-.25-.07-.25"/>
      </g>
      <path class="cls-1" d="M269.75,46.37c2.07-1.49,3.18-3.14,3.18-3.14,1.36-2.06,1.8-5.34,1.72-6.04-.08-.7-.42-.61-.82-.39-.39.22-1.68,1.15-2.48,1.73-.8.59-.88,1.04-.88,1.04-.36.94-.55,3.56-.55,3.56-.25.23-1.06.82-2.01,1.63-1.05.89-1.78,1.53-2.96,3.11-1.19,1.59-1.92,5.14-1.98,5.68-.07.54.16.31.16.31.54-.69,2.47-1.59,3.28-1.81.81-.22,2.97-.81,2.97-.81-.33.65-1.81,1.85-2.65,2.4-2.22,1.47-3.93,3.1-3.93,3.1-2,1.89-2.52,5.05-2.52,5.05-1.07.77-2.06,3.4-2.64,4.4-.58,1-1.09.8-1.09.8-.69-.27-1.09-1.09-.86-3.28.26-2.56,0-2.93-.19-3.2-.18-.27-1.48,1.09-2.14,3.37-.66,2.28-1.86,4.78-2.13,5.3-3.19,6.23-12.44,7.4-13.12,7.48-.67.08-.69.28-.69.28,3.9.49,7.37-.01,8.11-.12,5.78-.84,7.34-7.19,7.8-8.83.47-1.64.89-2.73,1.18-2.92.29-.2.2.83.2.83-.07.99.07,2.24.07,2.24.15,1.6,1.18,2.67,2.03,2.55.93-.12,1.65-2.08,2-3.24.35-1.17,1-2.06,1-2.06.4-.52,1.07-.82,1.94-.71.89.11,2.17,1.09,2.17,1.09.31-.25,1.01-2.06.75-3.39-.24-1.33-2.03-1.51-2.38-1.51s-.42-.16-.42-.16c.16-.81,2.54-2.43,3.25-2.93.71-.5,3.07-2.03,4.38-3.9,2.08-2.96,3.04-6.27,3.23-7.08.19-.81-.2-.49-.2-.49-1.34,1.01-3.59,1.71-4.01,1.78-.42.07-1.33.41-1.33.41.43-.54,1.64-1.44,2.57-2.11M243.72,67.27s-1.13,2.86-1.25,3.16c-.13.3.01.37.01.37,0,0,1.89.77,2.3.92.4.15.49-.02.49-.02,0,0,1.21-2.78,1.34-3.09.12-.31-.11-.41-.11-.41l-2.56-1.05c-.16-.04-.22.12-.22.12M240.58,65.51c.52-.06,1.22-.25,2.05-.78,1.86-1.2,1.93-4.99,1.97-5.58.04-.74-.02-3.74-.57-2.75,0,0-.33,2.58-.44,3.06-.11.48-.65,1.62-1.64,1.95-.98.33-1.97.37-2.75-.28h0c-.8-.6-1-1.15-1.31-1.68-.35-.61-.48-1.47-.48-1.47-.11-.23-.21.05-.21.05-.35.89-.71,2.78-.68,3.47.03,1,.68,1.73,1.82,3.54,1.13,1.8,1.07,2.64,1.07,2.64-.18.77-1.01,2.17-1.01,2.17-2.22,3.54-5.01,3.32-5.01,3.32-4.96-.74-5.65-5.75-5.65-5.75-.59-3.23,2.2-6.77,3.41-8.83,2.56-4.35,2.43-8.61,2.32-9.93-.11-1.31-.37-.5-.39-.07-.2,4.19-2.69,8-2.69,8-2.04,3.03-2.89,5.26-3.22,6.45-1.91,6.91,1.23,10.91,1.63,11.37,2.89,3.34,5.53,2.6,5.53,2.6,4.99-1.38,6.32-8.31,6.36-10.3.01-.37-.02-.78-.08-1.21M232.5,64.47s-1.13,2.86-1.26,3.16c-.12.3.02.37.02.37,0,0,1.89.78,2.3.93.41.15.49-.03.49-.03,0,0,1.21-2.78,1.34-3.09.12-.31-.11-.41-.11-.41l-2.56-1.05c-.16-.04-.21.12-.21.12M98.94,70.02c.41.15.49-.03.49-.03,0,0,1.21-2.78,1.33-3.09.12-.31-.11-.41-.11-.41l-2.56-1.05c-.16-.04-.21.12-.21.12,0,0-1.13,2.86-1.25,3.16-.12.3.01.37.01.37,0,0,1.89.78,2.3.93M181.53,70.64l-2.56-1.05c-.16-.04-.22.12-.22.12,0,0-1.13,2.86-1.25,3.16-.12.3.01.37.01.37,0,0,1.89.78,2.3.93.41.15.49-.03.49-.03,0,0,1.21-2.78,1.33-3.09.13-.31-.11-.41-.11-.41M168.68,64.27c-.16-.04-.22.12-.22.12,0,0-1.13,2.86-1.25,3.16-.12.3.01.37.01.37,0,0,1.89.78,2.3.93.41.15.49-.03.49-.03,0,0,1.21-2.78,1.33-3.09.12-.31-.11-.41-.11-.41l-2.56-1.05ZM58.51,76.82l-2.56-1.05c-.16-.04-.22.12-.22.12,0,0-1.13,2.86-1.25,3.16l-.03.07-.08-.07-2.56-1.05c-.17-.04-.22.12-.22.12,0,0-1.13,2.86-1.25,3.16-.12.3.01.37.01.37,0,0,1.89.78,2.3.93.41.15.49-.03.49-.03,0,0,1.21-2.78,1.33-3.09l.02-.05s1.89.78,2.3.93c.41.15.49-.03.49-.03,0,0,1.21-2.78,1.33-3.09.12-.31-.11-.41-.11-.41M222.83,38.91s1.89.78,2.3.93c.41.15.49-.03.49-.03,0,0,1.21-2.77,1.33-3.09.12-.31-.11-.41-.11-.41l-2.56-1.05c-.17-.04-.22.12-.22.12,0,0-1.13,2.86-1.25,3.16-.12.3.01.37.01.37M61.55,55.21s-1.13,2.86-1.25,3.16c-.12.3.01.37.01.37,0,0,1.89.77,2.3.93.41.15.49-.03.49-.03,0,0,1.21-2.78,1.34-3.09v-.04s1.91.77,2.31.92c.41.15.49-.03.49-.03,0,0,1.21-2.77,1.33-3.09.12-.31-.11-.41-.11-.41l-2.56-1.05c-.16-.04-.22.12-.22.12,0,0-1.13,2.86-1.25,3.16l-.02.07-.09-.07-2.56-1.05c-.16-.04-.22.12-.22.12M231.28,47.68c.18-3.92-1.87-5.38-1.87-5.38-1.68-1.52-3.64-.48-4.09.45-.39.81-.77,2.68-.65,3.5.3,2.15,2.05,2.32,2.17,2.32,2.06.02,2.47-2.17,2.47-2.17,1,.67,1.07,1.55,1.07,1.55-.86,2.94-2.59,4.66-3.37,5.24-.79.58-1.66.77-2.26.05-.6-.72-.52-2.14-.53-3.12-.02-.98-.2-1.35-.2-1.35-.92-.37-2.79,2.15-3.87,4.17-1.08,2.02-2.33,3.5-2.64,3.87-.82,1-1.69,1.68-2.4,2.13.21-.33.34-.57.38-.66,1.84-3.56,1.69-8.43,1.55-9.39-.14-.96-3.84,1.54-3.84,1.54-3.56,2.39-4.15,6.78-4.15,6.78-.26,1.52-.31,3.07-.24,4.57-1.59.87-2.85,1.1-3.21,1.16.15-.85.28-2.09.27-3.82,0-.39-.18-2.25-.45-.97,0,0-.15,2.58-.65,3.29-.5.71-1.66,1.73-3.24.53-.34-.25-1.12-1.2-2.08-3.65-.65-1.66-1.57-4.55-2.44-7.37.16-.12.31-.23.43-.34.74-.64,2.7-2.4,3.65-6.54,0,0,.2-.85-.37.3-.58,1.15-1.76,3.46-3.93,5.18l-.16.13c-.63-2.07-1.21-4.01-1.59-5.26,0,0-.43-1.7-.53-.97l-.45,3.35s.52,1.66,1.17,3.78c-1.52.85-3.1,1.39-3.95,1.77-1.15.53-5.93,2.43-7.59,7.81-.59,1.92-2.41,10.5,3.63,15.57,0,0,3.41,2.94,7.6.07.23-.16,4.82-2.87,4.79-12.05,0,0,.93,2.1,2.67,2.64,0,0,1.52.62,2.5-1.16,1.57.05,2.97-.28,4.2-.81.66,4.61,2.23,8.21,2.23,8.21.39.78.16-1.15.04-1.95-.11-.8-.55-2.67-1.01-4.91-.13-.64-.24-1.25-.32-1.81.21-.12.42-.24.61-.36,2.66-.69,4.46-1.85,5.16-2.32,2.67-1.81,4.52-5.33,5.26-6.58.73-1.25,1.6-1.99,1.94-2.08.34-.09.48.13.51.46.03.34.07,1.44.07,1.44.27,2.22,1.32,2.77,1.32,2.77,1.15.74,2.43-.36,2.77-.67,1.35-1.19,3.45-5.02,3.64-8.95M198.65,65.37c-.25,3.16-3.25,7.71-7.64,7.76-.45,0-5.14-.07-6.97-6.81,0,0-.89-4.03,1.62-7.46.18-.25,1.93-2.58,5.03-4.21,0,0,2.83-1.48,4.92-2.78.97,3.13,2.05,6.68,2.26,7.41,0,0,1.04,2.93.79,6.08M209.74,61.24c-.03-.62-.02-.97-.02-.97.04-.93.5-2.2.5-2.2.74-2.22,2.68-3.84,3.93-4.52,1.25-.68,1.78-.73,1.78-.73-.48,1.72-1.39,3.17-1.39,3.17-1.51,2.59-3.25,4.23-4.79,5.26M223.34,66l-2.56-1.05c-.16-.04-.22.12-.22.12,0,0-1.12,2.86-1.25,3.16l-.03.07-.08-.07-2.56-1.05c-.16-.04-.22.13-.22.13,0,0-1.13,2.86-1.25,3.16-.12.3.02.37.02.37,0,0,1.89.78,2.3.93.41.15.49-.03.49-.03,0,0,1.21-2.78,1.34-3.09v-.04s1.91.77,2.32.92c.41.15.49-.03.49-.03,0,0,1.21-2.78,1.33-3.09.12-.31-.11-.41-.11-.41M102.16,57.55c-2.74-.29-5.33,1.83-5.77,2.2-.43.38-.65.78-.65.78-.95,2.51-.97,4.69-.97,4.69l.23-.19c3.07-3.41,5.57-3.45,6.21-3.44,4.36.08,4.36,4.04,4.36,4.04-.32,1.55-1.73,3.51-1.92,3.77-2.29,3.14-5.74,4.84-8.45,3.31-2.71-1.54-3.36-4.08-3.24-6.38.12-2.3,3.65-9.17,4.13-10.17,2.04-4.27,1.94-7.95,1.72-10.62-.21-2.67-.37-.58-.38-.27-.15,3.89-1.28,7.08-1.8,8.35-.52,1.27-2.6,5.88-2.6,5.88-2.08,4.72-2.12,9.13-2.11,9.38.27,7.65,5.95,8.12,6.04,8.13,4.93.33,7.97-5.89,8.4-6.91,1.68-4.05,1.33-7.73,1.13-8.45-.84-3.03-2.8-3.95-4.32-4.11M180.44,35.61c-1.33.32-3.39,1.24-7.67,5.6-.77.78-6.57,7.48-8.67,9.98-2.1,2.5-11.62,14.02-21.37,15.73-.98.17-8.41,1.74-11.48-5.31-1.16-2.66-5.48-15.99-5.88-17.2,0,0-.37-1.1-.53.27l-.3,2.84s2.42,7.23,3.3,9.85c0,0,.57,1.91.88,2.93.08.27.31,1.07.57,1.85.12.84.11,2.48-1.29,4.25-1.38,1.75-3.06,2.99-4.09,3.64,1.67-3.52,1.52-8.13,1.39-9.07-.14-.96-3.84,1.54-3.84,1.54-1.07.73-1.88,1.63-2.48,2.55.32-1.43.85-3.88,1.16-5.82.03-.21,1.08-6.91-1.64-9.43-.14-.14-1.6-1.4-3.07.2-1.47,1.6-1.97,5.06-1.72,6.06,0,0,.13.56.25-.09,0,0,.24-2.36,1.74-2.92,0,0,1.48-.58,2.49,1.37,1.01,1.95,1,5.08.76,6.46-.09.5-1.11,5.38-1.37,7.22-.21.71-.27,1.17-.27,1.17-.22,1.3-.3,2.57-.28,3.79-.28.11-.58.19-.88.25-.64.13-1.96.01-2.88-1.31-.81-1.16-1.67-3.85-2-4.97-.33-1.12-2.19-7.7-2.43-8.55,0,0-.21-1-.37.12,0,0-.33,2.88-.3,3.28,0,0,2.52,9.62,3.31,11.16.79,1.55,1.7,4.55,5.49,3.91,0,0,.15-.02.4-.1.62,3.78,1.89,6.4,1.89,6.4.39.78.16-1.15.04-1.95-.11-.8-.25-1.23-.71-3.47-.1-.48-.18-.94-.25-1.37.17-.09.35-.19.54-.31l-.03.05s5.31-1.83,8.71-5.74c.27-.31,2.02-2.18,2.37-6.07.01-.12-.04-.5-.13-.94.6,1.37,2.48,5.36,5.85,6.7,0,0,3.84,1.92,9.88-.15.64-.22,6.44-2.34,12.1-8.28.38-.4,3.99-3.79,7.86-8.63.14-.18,1.63-2.02,3.5-4.21-.32,4.04-2.66,7.63-2.66,7.63-2.04,3.03-2.89,5.25-3.22,6.45-1.91,6.91,1.23,10.91,1.62,11.37,2.89,3.35,5.53,2.6,5.53,2.6,4.98-1.38,6.32-8.31,6.36-10.3,0-.37-.02-.78-.08-1.2.51-.06,1.22-.25,2.05-.78,1.86-1.2,1.93-4.98,1.97-5.58.04-.74-.02-3.74-.57-2.75,0,0-.33,2.58-.44,3.06-.11.48-.65,1.62-1.64,1.94-.98.33-1.96.37-2.75-.29h0c-.8-.59-1.01-1.15-1.31-1.68-.35-.61-.48-1.47-.48-1.47-.11-.23-.21.05-.21.05-.35.89-.7,2.79-.69,3.47.04,1,.69,1.74,1.82,3.54,1.14,1.8,1.07,2.64,1.07,2.64-.18.77-1.02,2.17-1.02,2.17-2.22,3.54-5.01,3.32-5.01,3.32-4.96-.74-5.65-5.75-5.65-5.75-.59-3.23,2.2-6.77,3.41-8.83,2.55-4.34,2.43-8.61,2.32-9.92l-.02-.16c2.07-2.4,4.52-5.12,6.16-6.52,0,0,2.2-1.91,3.46-2.27,0,0,1.52-.53,2.32-.1l.34.22s.7-2.08.42-3.76c0,0-.31-.68-1.65-.37M122.59,68.37s-2,2.85-4.62,4.27c0-.21,0-.32,0-.32.04-.93.5-2.2.5-2.2.74-2.22,2.68-3.83,3.93-4.52,1.25-.68,1.77-.73,1.77-.73-.48,1.72-1.39,3.17-1.39,3.17l-.2.33ZM79.46,42.81c-.17-.2-.41,2.04-.38,3.77.03,1.73.29,3.36,1.5,6.86,2.08,6.04,3.65,12.04,3.91,13.12.25,1.08.38.67.38.67.07-.77-.25-4.06-.6-5.81-.35-1.75-3.53-11.27-3.89-12.36-.37-1.1-.27-1.21-.27-1.21,4.41,4.48,5.79,7.61,5.79,7.61,2.78,5.03,1.53,9.13,1.38,9.74-2.18,8.56-15.68,11.34-16.75,11.54-1.08.2-.45.27-.45.27,12.07.48,15.41-4.31,15.95-5.11,3.88-5.71,2.56-13.04,2.43-13.85-1.36-8.29-8.99-15.27-8.99-15.27M77.08,66.6c2.77-5.64.82-10.99.82-10.99-1.76-5.7-8.09-12.58-8.09-12.58-.32-.26-.27,3.53-.15,4.25,1.05,6.14,3.22,11.08,3.22,11.08.05-.25,0-2.1-.18-2.96-.19-.85-2.03-7.01-1.79-6.76l.02.03c5.52,5.92,6.56,12.17,6.56,12.17-.12,1.34-1.01,2.73-1.32,3.24-.69,1.12-1.93,2.37-3.3,3.19.39-1.98.27-3.7-.02-4.82-.59-2.24-2.19-2.29-2.19-2.29-4.5,1.35-3.46,8.73-3.46,8.73.25,1.22.75,1.97,1.29,2.43-1.32,1.27-2.33,1.6-2.33,1.6-2.68.82-3.56-.95-4.44-2.43-1.01-1.7-5.36-13.7-5.51-14.23-.16-.53-.28-.47-.28-.47-.25.91-.13,4.38-.13,4.38.13.98,4.13,10.83,4.13,10.83,2.11,4.91,3.37,5.54,3.37,5.54,2.11,1.35,4.28-.57,4.85-1.1,1.23-1.14,2.18-2.33,2.9-3.51,3.7-1.06,5.62-4.49,6.04-5.34M70.56,68.16c-2.12.27-2.54-1.18-2.54-1.18,0-.41.92-2.77,2.05-2.96,1.31-.22,1.92,1.89,1.92,1.89-.34.82-.7,1.55-1.06,2.19l-.36.06ZM51.72,63.67c-.94-1.41-2.96-1.05-3.86-1.19-1.11-.17-1.55-.7-1.55-.7.55-1.05,2.32-2.09,3.56-2.93,2.2-1.5,3.56-2.88,4.13-3.58,2.15-2.66,2-6.06,1.91-7.06-.1-1-.36-.67-.61-.39-.25.28-2.04,2.16-2.91,2.57-.86.41-1.21-.02-1.21-.02,1.02-4.42,3.16-5.5,4.08-5.91.92-.41,1.34.87,1.47,1.3.14.43.34,1.24.34,1.24.69,1.61,1.97,1.74,2.4,1.63,1.13-.28,1.8-1.32,2.12-2.68.44-.28,1.34-1,1.98-2.46.25-.56,1.16-3.2-.47-6.62-.25-.53-.57-.59-.43-.12,0,0,.68,2.05.22,3.16-.28.65-.62,1.16-1.24,1.68-.33-1.79-1.04-2.64-1.04-2.64-.34-.31-.26.29-.26.29.27,1.33.34,3.16.34,3.16-.19,2.95-2.23,2.02-2.23,2.02-1.01-.47-1.13-1.64-1.27-2.7-.14-1.07-.88-1.21-.88-1.21-1.15-.4-2.85,1.29-3.09,1.55-2.67,2.96-2.95,7.19-2.95,7.19-.24,1.8.15,5.58.15,5.58-.39.3-1.63,1.1-1.63,1.1-1.9,1.25-2.71,3.23-2.71,3.23-1.58,4.88-.75,5.78-.75,5.78,1.55,1.88,2.81,1.38,4.38,1.55,1.58.17,1.83,1.58,1.83,1.58-2.38,5.61-5.58,5.62-5.94,5.63-4.06.13-6.11-3.68-6.58-4.84-1.37-3.37.33-7.05.75-8.01,1.05-2.37,1.77-4.86,1.77-4.86,1.2-4.37.24-7.76.02-8.48-.22-.72-.52-.96-.27.05.9,3.6-1.23,8.71-1.73,9.76-1.3,2.7-1.91,5.62-1.99,6.08-.77,4.78.78,8.24,1.09,8.85,2.84,5.69,7.4,5.43,7.71,5.36,5.11-1.2,6.09-8.18,6.14-8.66.37-3.72-.79-5.28-.79-5.28M109.47,52.92c-.03.61.11.17.11.17.53-1.56.16-3.56,0-4.19-.91-3.45-3.74-5.49-3.74-5.49l-.07.04v1.76c4.05,3.21,3.74,7.11,3.71,7.72M256.02,55.59s.37-.25.58-.84c.08.12.34.37.91.32.59-.05.97-1.09,1.04-1.35.35-1.22-.17-2.36-.17-2.36l-.05.06c-.11.25-.29,1.4-.29,1.4.15.18.22.59.22.59-.74.62-1.3.07-1.36-.09-.06-.16,0-1.11,0-1.11-.01-.2-.34.33-.5,1.19-.04.23-.04.44-.03.62-.1.17-.39.55-.93.42-.1-.02-.71-.22-.53-.8,0,0,.15-.38.22-.55.07-.16,0-.32-.21-.03-.22.29-1.02,1.87-.31,2.52,0,0,.61.61,1.41.02M158.82,68.79s.03.89-.31,1.26c-.2.22-.4.37-.73.48.08-.74-.11-1.17-.11-1.17-.1-.17-.14.07-.14.07-.05.56-.25,1.28-.25,1.28,0,0-.15.64-.8.72-.5.07-.72-.17-.91-.34-.25-.23-1.45-.76-3.06.39,0,0-1.01.81-1.62,1.38-.61.57-4.48,4.57-11.62,5.6,0,0-.97.08.68.07,1.65-.01,5.06.17,9.03-2.79.21-.16,2.05-1.77,2.36-2.04.31-.27,1.76-1.65,2.98-1.41,0,0,.49.11.82.35.32.24.68.35.86.35.51-.03.9-.29,1.21-.78.22-.05.72-.12,1.18-.61.17-.19.86-1.17.6-2.72-.04-.24-.16-.31-.16-.11"/>
      <g>
        <path class="cls-1" d="M10.93,122.29c.05.45.14,1.15.68,1.33.36.11.69.11.82.11.06,0,.1.01.1.06,0,.08-.11.11-.26.11-.28,0-1.63-.01-2.09-.05-.29-.02-.35-.06-.35-.13,0-.05.03-.08.09-.09.06-.01.08-.23.05-.45l-.6-6.51h-.04l-3.07,6.52c-.26.55-.3.66-.41.66-.09,0-.15-.13-.39-.58-.33-.61-1.4-2.78-1.47-2.91-.11-.23-1.52-3.23-1.65-3.57h-.05l-.5,5.82c-.01.2-.01.43-.01.64,0,.19.14.35.33.39.21.05.4.06.48.06.05,0,.1.02.1.06,0,.09-.08.11-.23.11-.46,0-1.07-.04-1.17-.04-.11,0-.71.04-1.05.04-.13,0-.21-.03-.21-.11,0-.04.06-.06.13-.06.1,0,.19,0,.38-.04.41-.08.45-.56.5-1.04l.9-8.17c.01-.14.06-.23.14-.23s.13.05.19.19l3.84,7.88,3.68-7.87c.05-.11.1-.2.19-.2s.13.1.15.34l.84,7.71Z"/>
        <path class="cls-1" d="M17.59,115.69c2.48,0,4.36,1.52,4.36,4s-1.77,4.35-4.42,4.35c-3.02,0-4.31-2.27-4.31-4.19,0-1.72,1.33-4.16,4.37-4.16ZM17.84,123.59c.99,0,2.98-.53,2.98-3.61,0-2.56-1.55-3.9-3.3-3.9-1.84,0-3.17,1.15-3.17,3.47,0,2.48,1.49,4.04,3.48,4.04Z"/>
        <path class="cls-1" d="M31.32,120.8c0,1.03.01,1.87.06,2.31.04.31.06.51.4.56.15.02.4.05.49.05.08,0,.1.05.1.09,0,.05-.06.09-.19.09-.6,0-1.3-.04-1.37-.04-.05,0-.76.04-1.09.04-.13,0-.18-.03-.18-.09,0-.04.03-.09.09-.09.1,0,.23-.03.33-.05.23-.05.26-.26.3-.58.05-.44.05-1.24.05-2.27v-1.07c0-.05-.03-.06-.06-.06h-4.6s-.06.01-.06.06v1.07c0,1.03,0,1.84.05,2.28.04.31.08.51.4.56.16.02.4.05.5.05.06,0,.09.05.09.09,0,.05-.05.09-.18.09-.61,0-1.32-.04-1.37-.04-.06,0-.76.04-1.1.04-.11,0-.18-.03-.18-.09,0-.04.03-.09.09-.09.1,0,.24-.03.34-.05.21-.05.24-.25.29-.56.06-.44.06-1.28.06-2.31v-1.88c0-1.65,0-1.96-.03-2.29-.03-.36-.09-.54-.45-.59-.09-.01-.28-.02-.38-.02-.04,0-.09-.05-.09-.09,0-.06.05-.09.18-.09.5,0,1.2.02,1.27.02.05,0,.75-.02,1.09-.02.13,0,.18.02.18.09,0,.04-.05.09-.09.09-.08,0-.15,0-.28.02-.3.06-.36.21-.39.59-.01.34-.01.66-.01,2.32v.23c0,.06.03.06.06.06h4.6s.06,0,.06-.06v-.23c0-1.65-.01-1.98-.03-2.32-.03-.36-.08-.54-.44-.59-.09-.01-.28-.02-.38-.02-.05,0-.09-.05-.09-.09,0-.06.05-.09.18-.09.49,0,1.2.02,1.25.02.06,0,.76-.02,1.09-.02.13,0,.19.02.19.09,0,.04-.05.09-.1.09-.08,0-.14,0-.28.02-.29.06-.35.21-.38.59-.03.34-.03.64-.03,2.29v1.88Z"/>
        <path class="cls-1" d="M36.88,116.05c.14-.35.19-.41.26-.41.11,0,.15.15.26.39.2.45,1.97,4.85,2.64,6.47.4.95.7,1.09.94,1.17.16.05.33.06.44.06.06,0,.14.02.14.09s-.13.09-.25.09c-.16,0-.98,0-1.74-.03-.21-.01-.39-.01-.39-.08,0-.05.03-.05.08-.08.06-.03.18-.11.1-.29l-.99-2.44s-.04-.06-.1-.06h-2.54c-.05,0-.09.03-.11.09l-.63,1.71c-.1.26-.16.53-.16.71,0,.21.19.29.38.29h.1c.09,0,.11.04.11.09,0,.06-.06.09-.16.09-.26,0-.86-.04-.99-.04-.11,0-.66.04-1.12.04-.14,0-.21-.03-.21-.09,0-.05.05-.09.1-.09.08,0,.24-.01.33-.03.5-.06.71-.44.93-.98l2.59-6.67ZM38.11,120.49c.05,0,.05-.02.04-.08l-1.09-2.92c-.06-.16-.13-.16-.19,0l-1.03,2.92c-.01.05,0,.08.04.08h2.23Z"/>
        <path class="cls-1" d="M51.28,122.53c.04.38.11.95.56,1.1.31.1.6.1.71.1.05,0,.09.02.09.08,0,.06-.1.1-.23.1-.25,0-1.48-.01-1.88-.05-.26-.02-.31-.06-.31-.11,0-.04.02-.08.08-.09.06-.01.08-.18.05-.38l-.53-5.42h-.03l-2.66,5.44c-.23.46-.29.56-.39.56s-.16-.1-.38-.49c-.29-.53-1.02-1.89-1.29-2.47-.33-.68-1.22-2.47-1.4-2.91h-.05l-.43,4.81c-.01.16-.01.36-.01.54,0,.16.1.26.26.3.19.05.35.06.43.06.04,0,.09.04.09.08,0,.08-.08.1-.2.1-.41,0-.94-.04-1.03-.04-.1,0-.63.04-.93.04-.11,0-.19-.03-.19-.1,0-.04.05-.08.11-.08.09,0,.16-.01.33-.04.36-.06.38-.45.43-.85l.8-6.96c.01-.11.06-.19.13-.19.08,0,.16.04.23.16l3.33,6.62,3.21-6.61c.05-.1.1-.17.18-.17s.14.09.16.29l.75,6.56Z"/>
        <path class="cls-1" d="M62.86,122.53c.04.38.11.95.56,1.1.31.1.6.1.71.1.05,0,.09.02.09.08,0,.06-.1.1-.23.1-.25,0-1.48-.01-1.88-.05-.26-.02-.31-.06-.31-.11,0-.04.02-.08.08-.09.06-.01.08-.18.05-.38l-.53-5.42h-.03l-2.66,5.44c-.23.46-.29.56-.39.56s-.16-.1-.38-.49c-.29-.53-1.02-1.89-1.29-2.47-.33-.68-1.22-2.47-1.4-2.91h-.05l-.43,4.81c-.01.16-.01.36-.01.54,0,.16.1.26.26.3.19.05.35.06.43.06.04,0,.09.04.09.08,0,.08-.08.1-.2.1-.41,0-.94-.04-1.03-.04-.1,0-.63.04-.93.04-.11,0-.19-.03-.19-.1,0-.04.05-.08.11-.08.09,0,.16-.01.33-.04.36-.06.38-.45.43-.85l.8-6.96c.01-.11.06-.19.13-.19.08,0,.16.04.23.16l3.33,6.62,3.21-6.61c.05-.1.1-.17.18-.17s.14.09.16.29l.75,6.56Z"/>
        <path class="cls-1" d="M66.17,118.92c0-1.65,0-1.96-.03-2.29-.03-.36-.09-.54-.45-.59-.09-.01-.28-.02-.38-.02-.04,0-.09-.05-.09-.09,0-.06.05-.09.18-.09.5,0,1.22.02,1.28.02.08,0,2.38.01,2.63,0,.21-.01.41-.05.5-.06.05-.01.1-.05.15-.05.04,0,.05.05.05.1,0,.08-.06.2-.09.5-.01.1-.04.58-.06.7-.01.05-.05.11-.1.11-.06,0-.09-.05-.09-.14,0-.08-.01-.25-.06-.38-.08-.18-.19-.25-.79-.33-.19-.02-1.47-.04-1.59-.04-.05,0-.06.04-.06.11v2.9c0,.08,0,.11.06.11.14,0,1.59,0,1.84-.03.26-.02.43-.04.54-.15.08-.08.13-.14.16-.14s.06.02.06.09-.06.24-.09.59c-.03.21-.05.61-.05.69,0,.09-.03.2-.1.2-.05,0-.08-.04-.08-.1,0-.1,0-.21-.05-.35-.04-.15-.14-.28-.56-.33-.3-.04-1.48-.05-1.67-.05-.06,0-.08.04-.08.08v.89c0,.36-.01,1.6,0,1.82.03.71.23.85,1.32.85.29,0,.82,0,1.1-.11.29-.13.44-.31.5-.74.03-.13.05-.16.11-.16s.08.09.08.16-.09.8-.15,1.03c-.08.28-.19.28-.61.28-.83,0-1.47-.02-1.92-.04-.46-.02-.75-.02-.91-.02-.03,0-.24,0-.48.01-.21.01-.46.03-.64.03-.11,0-.18-.03-.18-.09,0-.04.03-.09.09-.09.1,0,.24-.04.34-.05.21-.04.24-.25.29-.56.06-.44.06-1.28.06-2.31v-1.88Z"/>
        <path class="cls-1" d="M73.08,118.92c0-1.65,0-1.96-.03-2.29-.03-.36-.09-.54-.45-.59-.09-.01-.28-.02-.38-.02-.04,0-.09-.05-.09-.09,0-.06.05-.09.18-.09.5,0,1.22.02,1.28.02.13,0,.83-.02,1.48-.02,1.1,0,3.12-.1,4.42,1.22.55.55,1.08,1.44,1.08,2.71,0,1.34-.58,2.37-1.19,3-.48.49-1.47,1.23-3.35,1.23-.48,0-1.07-.04-1.54-.06-.48-.04-.85-.06-.9-.06-.03,0-.23.01-.45.01-.23.01-.49.03-.66.03-.11,0-.18-.03-.18-.09,0-.04.03-.09.09-.09.1,0,.24-.03.34-.05.21-.05.24-.25.29-.56.06-.44.06-1.28.06-2.31v-1.88ZM74.08,120.07c0,1.13,0,2.12.01,2.32.01.26.04.65.13.77.14.2.53.43,1.83.43,1.02,0,1.92-.34,2.58-.97.58-.54.86-1.55.86-2.53,0-1.35-.59-2.22-1.04-2.67-1.04-1.05-2.26-1.19-3.57-1.19-.21,0-.56.04-.66.08-.1.04-.14.09-.14.21v3.56Z"/>
        <path class="cls-1" d="M87.57,118.05c0-1.96,0-2.31-.03-2.71-.02-.43-.13-.63-.54-.71-.1-.03-.31-.04-.43-.04-.05,0-.1-.03-.1-.08,0-.08.06-.1.2-.1.56,0,1.35.04,1.42.04.3,0,.79-.04,1.37-.04,2.06,0,2.51,1.25,2.51,1.88,0,1.03-.59,1.64-1.18,2.26.93.29,2.17,1.18,2.17,2.64,0,1.34-1.05,2.73-3.2,2.73-.14,0-.54-.02-.9-.04-.36-.03-.71-.04-.76-.04-.02,0-.24,0-.5.01-.25,0-.54.03-.73.03-.14,0-.2-.03-.2-.1,0-.04.03-.08.1-.08.11,0,.26-.03.38-.05.25-.05.31-.33.36-.69.06-.53.06-1.52.06-2.72v-2.21ZM88.57,118.33c0,.09.03.11.09.14.08.01.3.05.76.05.7,0,.88-.02,1.14-.33.26-.3.45-.75.45-1.27,0-1.04-.46-2.16-1.69-2.16-.14,0-.4.01-.6.06-.11.02-.15.06-.15.14v3.36ZM88.57,119.66c0,.97,0,2.52.01,2.71.04.61.04.79.43.98.34.16.88.19,1.1.19.68,0,1.77-.36,1.77-1.78,0-.75-.25-1.84-1.22-2.51-.43-.29-.74-.33-1.04-.36-.16-.02-.79-.02-.98-.02-.05,0-.08.02-.08.09v.71Z"/>
        <path class="cls-1" d="M96.89,120.8c0,1.03,0,1.87.05,2.31.04.31.08.51.4.56.16.02.4.05.5.05.06,0,.09.05.09.09,0,.05-.05.09-.18.09-.61,0-1.33-.04-1.38-.04-.06,0-.75.04-1.09.04-.11,0-.18-.03-.18-.09,0-.04.03-.09.09-.09.1,0,.24-.03.34-.05.21-.05.25-.25.29-.56.05-.44.06-1.28.06-2.31v-1.88c0-1.65,0-1.96-.03-2.29-.03-.36-.11-.53-.35-.58-.13-.02-.26-.04-.34-.04-.05,0-.09-.05-.09-.09,0-.06.05-.09.18-.09.36,0,1.05.02,1.12.02.05,0,.76-.02,1.1-.02.13,0,.18.02.18.09,0,.04-.05.09-.09.09-.08,0-.15,0-.28.02-.3.06-.36.21-.39.59-.01.34-.01.64-.01,2.29v1.88Z"/>
        <path class="cls-1" d="M101.23,122.44c.03.88.13,1.14.43,1.22.2.05.45.06.55.06.05,0,.09.04.09.09,0,.06-.08.09-.2.09-.63,0-1.07-.04-1.17-.04s-.56.04-1.07.04c-.11,0-.18-.01-.18-.09,0-.05.04-.09.09-.09.09,0,.29-.01.45-.06.28-.08.31-.36.31-1.33v-6.1c0-.43.06-.54.15-.54.13,0,.31.21.43.33.18.18,1.78,1.88,3.48,3.64,1.09,1.13,2.27,2.39,2.61,2.74l-.11-5.34c-.01-.69-.08-.93-.41-.99-.2-.04-.45-.05-.54-.05-.08,0-.09-.06-.09-.1,0-.06.09-.08.21-.08.5,0,1.03.02,1.15.02s.49-.02.94-.02c.11,0,.2.01.2.08,0,.04-.05.1-.13.1-.05,0-.14,0-.26.02-.36.08-.39.29-.39.93l-.02,6.24c0,.7-.01.77-.09.77-.11,0-.23-.09-.84-.65-.11-.1-1.71-1.67-2.87-2.88-1.28-1.34-2.52-2.64-2.86-3.02l.13,5.03Z"/>
        <path class="cls-1" d="M115.56,118.05c0-1.96,0-2.31-.03-2.71-.02-.43-.13-.63-.54-.71-.1-.03-.31-.04-.43-.04-.05,0-.1-.03-.1-.08,0-.08.06-.1.2-.1.29,0,.63,0,.9.01h.51c.25.01,2.8.03,3.08.01.24-.01.44-.01.55-.05.08-.03.13-.08.18-.08s.08.05.08.11c0,.09-.06.24-.1.59-.01.13-.04.68-.06.83-.01.06-.04.14-.1.14s-.09-.06-.09-.15c0-.1-.04-.31-.11-.48-.08-.16-.36-.39-.85-.4l-1.93-.04c-.08,0-.11.04-.11.14v3.46c0,.08.01.11.09.11h1.6c.21-.01.39-.01.56-.02.3-.03.46-.06.58-.23.05-.06.09-.13.14-.13s.06.04.06.1c0,.08-.06.29-.1.7-.02.25-.05.75-.05.84,0,.11,0,.24-.09.24-.06,0-.09-.05-.09-.11-.01-.13-.03-.3-.08-.45-.06-.18-.26-.4-.65-.45-.31-.04-1.68-.04-1.89-.04-.06,0-.09.02-.09.11v1.07c0,1.2,0,2.19.06,2.72.04.36.11.64.49.69.18.02.45.05.56.05.08,0,.1.04.1.08,0,.06-.06.1-.2.1-.69,0-1.48-.04-1.54-.04s-.85.04-1.23.04c-.14,0-.2-.03-.2-.1,0-.04.03-.08.1-.08.11,0,.26-.03.38-.05.25-.05.31-.33.36-.69.06-.53.06-1.52.06-2.72v-2.21Z"/>
        <path class="cls-1" d="M124.37,116.05c.14-.35.19-.41.26-.41.11,0,.15.15.26.39.2.45,1.97,4.85,2.64,6.47.4.95.7,1.09.94,1.17.16.05.33.06.44.06.06,0,.14.02.14.09s-.13.09-.25.09c-.16,0-.98,0-1.74-.03-.21-.01-.39-.01-.39-.08,0-.05.03-.05.08-.08.06-.03.18-.11.1-.29l-.99-2.44s-.04-.06-.1-.06h-2.54c-.05,0-.09.03-.11.09l-.63,1.71c-.1.26-.16.53-.16.71,0,.21.19.29.38.29h.1c.09,0,.11.04.11.09,0,.06-.06.09-.16.09-.26,0-.86-.04-.99-.04-.11,0-.66.04-1.12.04-.14,0-.21-.03-.21-.09,0-.05.05-.09.1-.09.08,0,.24-.01.33-.03.5-.06.71-.44.93-.98l2.59-6.67ZM125.6,120.49c.05,0,.05-.02.04-.08l-1.09-2.92c-.06-.16-.13-.16-.19,0l-1.03,2.92c-.01.05,0,.08.04.08h2.23Z"/>
        <path class="cls-1" d="M131.51,120.8c0,1.03,0,1.87.05,2.31.04.31.08.51.4.56.16.02.4.05.5.05.06,0,.09.05.09.09,0,.05-.05.09-.18.09-.61,0-1.33-.04-1.38-.04-.06,0-.75.04-1.09.04-.11,0-.18-.03-.18-.09,0-.04.03-.09.09-.09.1,0,.24-.03.34-.05.21-.05.25-.25.29-.56.05-.44.06-1.28.06-2.31v-1.88c0-1.65,0-1.96-.03-2.29-.03-.36-.11-.53-.35-.58-.13-.02-.26-.04-.34-.04-.05,0-.09-.05-.09-.09,0-.06.05-.09.18-.09.36,0,1.05.02,1.12.02.05,0,.76-.02,1.1-.02.13,0,.18.02.18.09,0,.04-.05.09-.09.09-.08,0-.15,0-.28.02-.3.06-.36.21-.39.59-.01.34-.01.64-.01,2.29v1.88Z"/>
        <path class="cls-1" d="M134.45,123.74c-.15-.08-.16-.11-.16-.4,0-.53.05-.95.06-1.13,0-.11.02-.17.09-.17s.1.04.1.13,0,.24.04.39c.18.78,1,1.05,1.74,1.05,1.09,0,1.65-.61,1.65-1.42s-.41-1.13-1.39-1.86l-.5-.38c-1.19-.89-1.58-1.54-1.58-2.28,0-1.25.99-2.01,2.44-2.01.44,0,.88.06,1.14.13.21.05.3.05.39.05s.11.01.11.08c0,.05-.05.4-.05,1.13,0,.16-.01.24-.09.24s-.09-.05-.1-.14c-.01-.13-.1-.41-.16-.53-.08-.13-.44-.53-1.43-.53-.8,0-1.47.4-1.47,1.15,0,.68.34,1.07,1.43,1.8l.31.21c1.34.91,1.8,1.65,1.8,2.57,0,.63-.24,1.3-1.03,1.82-.46.3-1.15.38-1.75.38-.51,0-1.15-.08-1.6-.29Z"/>
        <path class="cls-1" d="M143.62,116.05c.14-.35.19-.41.26-.41.11,0,.15.15.26.39.2.45,1.97,4.85,2.64,6.47.4.95.7,1.09.94,1.17.16.05.33.06.44.06.06,0,.14.02.14.09s-.13.09-.25.09c-.16,0-.98,0-1.74-.03-.21-.01-.39-.01-.39-.08,0-.05.03-.05.08-.08.06-.03.18-.11.1-.29l-.99-2.44s-.04-.06-.1-.06h-2.54c-.05,0-.09.03-.11.09l-.63,1.71c-.1.26-.16.53-.16.71,0,.21.19.29.38.29h.1c.09,0,.11.04.11.09,0,.06-.06.09-.16.09-.26,0-.86-.04-.99-.04-.11,0-.66.04-1.12.04-.14,0-.21-.03-.21-.09,0-.05.05-.09.1-.09.08,0,.24-.01.33-.03.5-.06.71-.44.93-.98l2.59-6.67ZM144.85,120.49c.05,0,.05-.02.04-.08l-1.09-2.92c-.06-.16-.13-.16-.19,0l-1.03,2.92c-.01.05,0,.08.04.08h2.23Z"/>
        <path class="cls-1" d="M150.76,120.82c0,1.57.03,2.21.23,2.39.18.17.6.25,1.47.25.58,0,1.07-.01,1.33-.33.14-.16.23-.39.26-.6.01-.08.05-.14.11-.14.05,0,.08.05.08.16s-.08.75-.16,1.07c-.08.25-.11.29-.7.29-.79,0-1.4-.01-1.92-.04-.5-.01-.88-.02-1.2-.02-.05,0-.24,0-.45.01-.23.01-.46.03-.64.03-.11,0-.18-.03-.18-.09,0-.04.03-.09.09-.09.1,0,.24-.03.34-.05.21-.05.24-.25.29-.56.06-.44.06-1.28.06-2.31v-1.88c0-1.65,0-1.96-.03-2.29-.03-.36-.09-.54-.45-.59-.09-.01-.28-.02-.38-.02-.04,0-.09-.05-.09-.09,0-.06.05-.09.18-.09.5,0,1.19.02,1.25.02.05,0,.88-.02,1.22-.02.11,0,.18.02.18.09,0,.04-.05.08-.09.08-.08,0-.24.01-.36.02-.33.06-.39.23-.41.6-.01.34-.01.64-.01,2.29v1.91Z"/>
        <path class="cls-1" d="M160.82,118.05c0-1.96,0-2.31-.02-2.71-.03-.43-.13-.63-.54-.71-.1-.03-.31-.04-.43-.04-.05,0-.1-.03-.1-.08,0-.08.06-.1.2-.1.56,0,1.35.04,1.42.04.3,0,.79-.04,1.37-.04,2.06,0,2.51,1.25,2.51,1.88,0,1.03-.59,1.64-1.18,2.26.93.29,2.17,1.18,2.17,2.64,0,1.34-1.05,2.73-3.2,2.73-.14,0-.54-.02-.9-.04-.36-.03-.71-.04-.76-.04-.02,0-.24,0-.5.01-.25,0-.54.03-.73.03-.14,0-.2-.03-.2-.1,0-.04.03-.08.1-.08.11,0,.26-.03.38-.05.25-.05.31-.33.36-.69.06-.53.06-1.52.06-2.72v-2.21ZM161.83,118.33c0,.09.03.11.09.14.08.01.3.05.76.05.7,0,.88-.02,1.14-.33.26-.3.45-.75.45-1.27,0-1.04-.46-2.16-1.69-2.16-.14,0-.4.01-.6.06-.11.02-.15.06-.15.14v3.36ZM161.83,119.66c0,.97,0,2.52.01,2.71.04.61.04.79.43.98.34.16.88.19,1.1.19.68,0,1.77-.36,1.77-1.78,0-.75-.25-1.84-1.22-2.51-.43-.29-.74-.33-1.04-.36-.16-.02-.79-.02-.98-.02-.05,0-.08.02-.08.09v.71Z"/>
        <path class="cls-1" d="M170.14,120.8c0,1.03,0,1.87.05,2.31.04.31.08.51.4.56.16.02.4.05.5.05.06,0,.09.05.09.09,0,.05-.05.09-.18.09-.61,0-1.33-.04-1.38-.04-.06,0-.75.04-1.09.04-.11,0-.18-.03-.18-.09,0-.04.02-.09.09-.09.1,0,.24-.03.34-.05.21-.05.25-.25.29-.56.05-.44.06-1.28.06-2.31v-1.88c0-1.65,0-1.96-.02-2.29-.02-.36-.11-.53-.35-.58-.13-.02-.26-.04-.34-.04-.05,0-.09-.05-.09-.09,0-.06.05-.09.18-.09.36,0,1.05.02,1.12.02.05,0,.77-.02,1.1-.02.13,0,.18.02.18.09,0,.04-.05.09-.09.09-.08,0-.15,0-.28.02-.3.06-.36.21-.39.59-.01.34-.01.64-.01,2.29v1.88Z"/>
        <path class="cls-1" d="M174.48,122.44c.02.88.13,1.14.43,1.22.2.05.45.06.55.06.05,0,.09.04.09.09,0,.06-.08.09-.2.09-.63,0-1.07-.04-1.17-.04s-.56.04-1.07.04c-.11,0-.18-.01-.18-.09,0-.05.04-.09.09-.09.09,0,.29-.01.45-.06.28-.08.31-.36.31-1.33v-6.1c0-.43.06-.54.15-.54.13,0,.31.21.43.33.18.18,1.78,1.88,3.49,3.64,1.09,1.13,2.27,2.39,2.61,2.74l-.11-5.34c-.01-.69-.08-.93-.41-.99-.2-.04-.45-.05-.54-.05-.08,0-.09-.06-.09-.1,0-.06.09-.08.21-.08.5,0,1.03.02,1.15.02s.49-.02.94-.02c.11,0,.2.01.2.08,0,.04-.05.1-.13.1-.05,0-.14,0-.26.02-.36.08-.39.29-.39.93l-.02,6.24c0,.7-.01.77-.09.77-.11,0-.23-.09-.84-.65-.11-.1-1.71-1.67-2.87-2.88-1.28-1.34-2.52-2.64-2.86-3.02l.13,5.03Z"/>
        <path class="cls-1" d="M188.01,123.73c-.18-.09-.19-.14-.19-.48,0-.63.05-1.13.06-1.33.01-.14.04-.2.1-.2.08,0,.09.04.09.14,0,.11,0,.29.04.46.19.93,1.01,1.28,1.86,1.28,1.2,0,1.79-.86,1.79-1.67,0-.86-.36-1.37-1.44-2.26l-.56-.46c-1.33-1.09-1.63-1.87-1.63-2.72,0-1.34,1-2.26,2.59-2.26.49,0,.85.05,1.17.13.24.05.34.06.44.06s.13.03.13.09-.05.48-.05,1.33c0,.2-.02.29-.09.29-.08,0-.09-.06-.1-.16-.01-.15-.09-.49-.16-.63-.08-.14-.41-.66-1.57-.66-.86,0-1.54.54-1.54,1.45,0,.71.33,1.17,1.53,2.11l.35.28c1.48,1.17,1.83,1.94,1.83,2.95,0,.51-.2,1.47-1.07,2.08-.54.38-1.22.53-1.89.53-.59,0-1.17-.09-1.68-.34Z"/>
        <path class="cls-1" d="M195.1,118.92c0-1.65,0-1.96-.02-2.29-.02-.34-.09-.54-.45-.59-.09-.01-.28-.02-.38-.02-.04,0-.09-.05-.09-.09,0-.06.05-.09.18-.09.5,0,1.17.02,1.27.02s.79-.02,1.12-.02c.13,0,.19.02.19.09,0,.04-.05.09-.1.09-.08,0-.14,0-.28.02-.29.05-.35.24-.38.59-.02.34-.02.64-.02,2.29v1.49c0,1.54.34,2.18.81,2.61.54.49,1.02.58,1.64.58.68,0,1.33-.3,1.7-.75.51-.61.63-1.49.63-2.58v-1.34c0-1.65-.01-1.96-.03-2.29-.01-.34-.08-.54-.44-.59-.09-.01-.28-.02-.38-.02-.05,0-.09-.05-.09-.09,0-.06.05-.09.17-.09.49,0,1.13.02,1.19.02.08,0,.6-.02.93-.02.13,0,.18.02.18.09,0,.04-.04.09-.09.09-.08,0-.14,0-.28.02-.3.06-.36.24-.39.59-.02.34-.01.64-.01,2.29v1.14c0,1.15-.15,2.44-1.03,3.2-.8.69-1.65.78-2.31.78-.36,0-1.52-.03-2.29-.75-.54-.5-.97-1.24-.97-2.8v-1.57Z"/>
        <path class="cls-1" d="M205.84,120.82c0,1.57.02,2.21.23,2.39.18.17.6.25,1.47.25.58,0,1.07-.01,1.33-.33.14-.16.23-.39.26-.6.01-.08.05-.14.11-.14.05,0,.08.05.08.16s-.08.75-.16,1.07c-.08.25-.11.29-.7.29-.79,0-1.4-.01-1.92-.04-.5-.01-.88-.02-1.2-.02-.05,0-.24,0-.45.01-.23.01-.46.03-.64.03-.11,0-.18-.03-.18-.09,0-.04.02-.09.09-.09.1,0,.24-.03.34-.05.21-.05.24-.25.29-.56.06-.44.06-1.28.06-2.31v-1.88c0-1.65,0-1.96-.02-2.29-.02-.36-.09-.54-.45-.59-.09-.01-.28-.02-.38-.02-.04,0-.09-.05-.09-.09,0-.06.05-.09.18-.09.5,0,1.19.02,1.25.02.05,0,.88-.02,1.22-.02.11,0,.18.02.18.09,0,.04-.05.08-.09.08-.08,0-.24.01-.36.02-.33.06-.39.23-.41.6-.01.34-.01.64-.01,2.29v1.91Z"/>
        <path class="cls-1" d="M213.94,120.8c0,1.03,0,1.87.05,2.31.04.31.09.51.43.56.15.02.4.05.5.05.08,0,.09.05.09.09,0,.05-.05.09-.18.09-.6,0-1.3-.04-1.37-.04-.05,0-.81.04-1.14.04-.13,0-.18-.03-.18-.09,0-.04.03-.08.09-.08.1,0,.23-.02.33-.05.23-.05.29-.26.33-.58.05-.44.05-1.28.05-2.31v-4.47l-1.59.02c-.69.01-.95.09-1.12.34-.13.19-.14.26-.17.34-.03.09-.06.1-.11.1-.03,0-.08-.02-.08-.09,0-.11.21-1.07.24-1.15.01-.06.08-.2.11-.2.08,0,.19.09.49.13.31.04.74.05.86.05h4.16c.36,0,.61-.02.79-.05.16-.03.26-.05.31-.05s.05.06.05.13c0,.33-.04,1.09-.04,1.22,0,.09-.05.14-.1.14s-.08-.04-.09-.19v-.11c-.05-.33-.29-.56-1.34-.59l-1.38-.02v4.47Z"/>
        <path class="cls-1" d="M220.86,116.05c.14-.35.19-.41.26-.41.11,0,.15.15.26.39.2.45,1.97,4.85,2.64,6.47.4.95.7,1.09.94,1.17.16.05.33.06.44.06.06,0,.14.02.14.09s-.13.09-.25.09c-.16,0-.98,0-1.74-.03-.21-.01-.39-.01-.39-.08,0-.05.02-.05.08-.08.06-.03.18-.11.1-.29l-.99-2.44s-.04-.06-.1-.06h-2.54c-.05,0-.09.03-.11.09l-.63,1.71c-.1.26-.16.53-.16.71,0,.21.19.29.38.29h.1c.09,0,.11.04.11.09,0,.06-.06.09-.16.09-.26,0-.86-.04-.99-.04-.11,0-.66.04-1.12.04-.14,0-.21-.03-.21-.09,0-.05.05-.09.1-.09.08,0,.24-.01.33-.03.5-.06.71-.44.93-.98l2.59-6.67ZM222.09,120.49s.05-.02.04-.08l-1.09-2.92c-.06-.16-.13-.16-.19,0l-1.03,2.92c-.01.05,0,.08.04.08h2.23Z"/>
        <path class="cls-1" d="M227.46,122.44c.02.88.13,1.14.43,1.22.2.05.45.06.55.06.05,0,.09.04.09.09,0,.06-.08.09-.2.09-.63,0-1.07-.04-1.17-.04s-.56.04-1.07.04c-.11,0-.18-.01-.18-.09,0-.05.04-.09.09-.09.09,0,.29-.01.45-.06.28-.08.31-.36.31-1.33v-6.1c0-.43.06-.54.15-.54.13,0,.31.21.43.33.18.18,1.78,1.88,3.49,3.64,1.09,1.13,2.27,2.39,2.61,2.74l-.11-5.34c-.01-.69-.08-.93-.41-.99-.2-.04-.45-.05-.54-.05-.08,0-.09-.06-.09-.1,0-.06.09-.08.21-.08.5,0,1.03.02,1.15.02s.49-.02.94-.02c.11,0,.2.01.2.08,0,.04-.05.1-.13.1-.05,0-.14,0-.26.02-.36.08-.39.29-.39.93l-.02,6.24c0,.7-.01.77-.09.77-.11,0-.23-.09-.84-.65-.11-.1-1.71-1.67-2.87-2.88-1.28-1.34-2.52-2.64-2.86-3.02l.13,5.03Z"/>
        <path class="cls-1" d="M243.6,114.73c.15-.41.2-.49.28-.49s.13.06.28.45c.19.48,2.16,5.65,2.92,7.56.45,1.12.81,1.32,1.08,1.39.19.06.38.08.5.08.08,0,.13.01.13.08,0,.08-.11.1-.25.1-.19,0-1.1,0-1.97-.03-.24-.01-.38-.01-.38-.09,0-.05.04-.08.09-.09.08-.02.15-.14.08-.34l-1.17-3.08c-.02-.05-.05-.08-.11-.08h-2.7c-.06,0-.1.04-.13.1l-.75,2.22c-.11.31-.18.61-.18.84,0,.25.26.36.48.36h.13c.09,0,.13.02.13.08,0,.08-.08.1-.19.1-.3,0-.84-.04-.98-.04s-.83.04-1.42.04c-.16,0-.24-.03-.24-.1,0-.05.05-.08.11-.08.09,0,.26-.01.36-.03.58-.08.83-.55,1.05-1.18l2.85-7.78ZM244.9,119.75c.06,0,.06-.04.05-.09l-1.19-3.38c-.06-.19-.13-.19-.19,0l-1.1,3.38c-.02.06,0,.09.04.09h2.39Z"/>
        <path class="cls-1" d="M251.27,120.82c0,1.57.02,2.21.23,2.39.18.17.6.25,1.47.25.58,0,1.07-.01,1.33-.33.14-.16.23-.39.26-.6.01-.08.05-.14.11-.14.05,0,.08.05.08.16s-.08.75-.16,1.07c-.08.25-.11.29-.7.29-.79,0-1.4-.01-1.92-.04-.5-.01-.88-.02-1.2-.02-.05,0-.24,0-.45.01-.23.01-.46.03-.64.03-.11,0-.18-.03-.18-.09,0-.04.02-.09.09-.09.1,0,.24-.03.34-.05.21-.05.24-.25.29-.56.06-.44.06-1.28.06-2.31v-1.88c0-1.65,0-1.96-.02-2.29-.02-.36-.09-.54-.45-.59-.09-.01-.28-.02-.38-.02-.04,0-.09-.05-.09-.09,0-.06.05-.09.18-.09.5,0,1.19.02,1.25.02.05,0,.88-.02,1.22-.02.11,0,.18.02.18.09,0,.04-.05.08-.09.08-.08,0-.24.01-.36.02-.33.06-.39.23-.41.6-.01.34-.01.64-.01,2.29v1.91Z"/>
        <path class="cls-1" d="M266.77,123.64c-.45.24-1.3.43-1.97.43-3.47,0-4.9-2.67-4.9-4.93,0-2.03,1.48-4.9,4.94-4.9,2.82,0,4.93,1.79,4.93,4.7,0,2.21-1.39,3.67-2.22,4.21l2.57,1.33c2.74,1.42,4.65,1.48,5.28,1.48s1.6-.14,2.47-.49c.08-.02.14-.05.18-.05.05,0,.08.04.08.08,0,.05-.02.09-.1.13-.71.33-2.12.86-3.97.86-1.52,0-3.13-.55-5.16-1.68l-2.11-1.16ZM265.11,123.59c1.13,0,3.46-.65,3.46-4.3,0-3.01-1.83-4.63-3.81-4.63-2.09,0-3.66,1.38-3.66,4.12,0,2.92,1.76,4.8,4.01,4.8Z"/>
        <path class="cls-1" d="M274.25,116.05c.14-.35.19-.41.26-.41.11,0,.15.15.26.39.2.45,1.97,4.85,2.64,6.47.4.95.7,1.09.94,1.17.16.05.33.06.44.06.06,0,.14.02.14.09s-.13.09-.25.09c-.16,0-.98,0-1.74-.03-.21-.01-.39-.01-.39-.08,0-.05.02-.05.08-.08.06-.03.18-.11.1-.29l-.99-2.44s-.04-.06-.1-.06h-2.54c-.05,0-.09.03-.11.09l-.63,1.71c-.1.26-.16.53-.16.71,0,.21.19.29.38.29h.1c.09,0,.11.04.11.09,0,.06-.06.09-.16.09-.26,0-.86-.04-.99-.04-.11,0-.66.04-1.12.04-.14,0-.21-.03-.21-.09,0-.05.05-.09.1-.09.08,0,.24-.01.33-.03.5-.06.71-.44.93-.98l2.59-6.67ZM275.48,120.49s.05-.02.04-.08l-1.09-2.92c-.06-.16-.13-.16-.19,0l-1.03,2.92c-.01.05,0,.08.04.08h2.23Z"/>
        <path class="cls-1" d="M279.46,123.74c-.15-.08-.16-.11-.16-.4,0-.53.05-.95.06-1.13,0-.11.02-.17.09-.17s.1.04.1.13,0,.24.04.39c.18.78,1,1.05,1.74,1.05,1.09,0,1.65-.61,1.65-1.42s-.41-1.13-1.39-1.86l-.5-.38c-1.19-.89-1.58-1.54-1.58-2.28,0-1.25.99-2.01,2.44-2.01.44,0,.88.06,1.14.13.21.05.3.05.39.05s.11.01.11.08c0,.05-.05.4-.05,1.13,0,.16-.01.24-.09.24s-.09-.05-.1-.14c-.01-.13-.1-.41-.16-.53-.08-.13-.44-.53-1.43-.53-.8,0-1.47.4-1.47,1.15,0,.68.34,1.07,1.43,1.8l.31.21c1.34.91,1.81,1.65,1.81,2.57,0,.63-.24,1.3-1.03,1.82-.46.3-1.15.38-1.76.38-.51,0-1.15-.08-1.6-.29Z"/>
        <path class="cls-1" d="M286.03,123.74c-.15-.08-.16-.11-.16-.4,0-.53.05-.95.06-1.13,0-.11.02-.17.09-.17s.1.04.1.13,0,.24.04.39c.18.78,1,1.05,1.74,1.05,1.09,0,1.65-.61,1.65-1.42s-.41-1.13-1.39-1.86l-.5-.38c-1.19-.89-1.58-1.54-1.58-2.28,0-1.25.99-2.01,2.44-2.01.44,0,.88.06,1.14.13.21.05.3.05.39.05s.11.01.11.08c0,.05-.05.4-.05,1.13,0,.16-.01.24-.09.24s-.09-.05-.1-.14c-.01-.13-.1-.41-.16-.53-.08-.13-.44-.53-1.43-.53-.8,0-1.47.4-1.47,1.15,0,.68.34,1.07,1.43,1.8l.31.21c1.34.91,1.81,1.65,1.81,2.57,0,.63-.24,1.3-1.03,1.82-.46.3-1.15.38-1.76.38-.51,0-1.15-.08-1.6-.29Z"/>
        <path class="cls-1" d="M294.52,120.8c0,1.03,0,1.87.05,2.31.04.31.08.51.4.56.16.02.4.05.5.05.06,0,.09.05.09.09,0,.05-.05.09-.18.09-.61,0-1.33-.04-1.38-.04-.06,0-.75.04-1.09.04-.11,0-.18-.03-.18-.09,0-.04.02-.09.09-.09.1,0,.24-.03.34-.05.21-.05.25-.25.29-.56.05-.44.06-1.28.06-2.31v-1.88c0-1.65,0-1.96-.02-2.29-.02-.36-.11-.53-.35-.58-.13-.02-.26-.04-.34-.04-.05,0-.09-.05-.09-.09,0-.06.05-.09.18-.09.36,0,1.05.02,1.12.02.05,0,.77-.02,1.1-.02.13,0,.18.02.18.09,0,.04-.05.09-.09.09-.08,0-.15,0-.28.02-.3.06-.36.21-.39.59-.01.34-.01.64-.01,2.29v1.88Z"/>
        <path class="cls-1" d="M306.65,122.53c.04.38.11.95.56,1.1.31.1.6.1.71.1.05,0,.09.02.09.08,0,.06-.1.1-.23.1-.25,0-1.48-.01-1.88-.05-.26-.02-.31-.06-.31-.11,0-.04.03-.08.08-.09.06-.01.08-.18.05-.38l-.53-5.42h-.03l-2.66,5.44c-.23.46-.29.56-.39.56s-.16-.1-.38-.49c-.29-.53-1.02-1.89-1.29-2.47-.33-.68-1.22-2.47-1.4-2.91h-.05l-.43,4.81c-.01.16-.01.36-.01.54,0,.16.1.26.26.3.19.05.35.06.43.06.04,0,.09.04.09.08,0,.08-.08.1-.2.1-.41,0-.94-.04-1.03-.04-.1,0-.63.04-.93.04-.11,0-.19-.03-.19-.1,0-.04.05-.08.11-.08.09,0,.16-.01.33-.04.36-.06.38-.45.43-.85l.8-6.96c.01-.11.06-.19.13-.19.08,0,.16.04.23.16l3.33,6.62,3.21-6.61c.05-.1.1-.17.18-.17s.14.09.16.29l.75,6.56Z"/>
        <path class="cls-1" d="M310.97,120.8c0,1.03,0,1.87.05,2.31.04.31.08.51.4.56.16.02.4.05.5.05.06,0,.09.05.09.09,0,.05-.05.09-.18.09-.61,0-1.33-.04-1.38-.04-.06,0-.75.04-1.09.04-.11,0-.18-.03-.18-.09,0-.04.02-.09.09-.09.1,0,.24-.03.34-.05.21-.05.25-.25.29-.56.05-.44.06-1.28.06-2.31v-1.88c0-1.65,0-1.96-.02-2.29-.02-.36-.11-.53-.35-.58-.13-.02-.26-.04-.34-.04-.05,0-.09-.05-.09-.09,0-.06.05-.09.18-.09.36,0,1.05.02,1.12.02.05,0,.77-.02,1.1-.02.13,0,.18.02.18.09,0,.04-.05.09-.09.09-.08,0-.15,0-.28.02-.3.06-.36.21-.39.59-.01.34-.01.64-.01,2.29v1.88Z"/>
      </g>
      <g>
        <path class="cls-1" d="M84.12,100.98c0,1.2,0,2.19.06,2.72.04.36.11.64.49.69.18.02.45.05.56.05.08,0,.1.04.1.08,0,.06-.06.1-.2.1-.69,0-1.48-.04-1.54-.04s-.85.04-1.23.04c-.14,0-.2-.03-.2-.1,0-.04.03-.08.1-.08.11,0,.26-.03.38-.05.25-.05.31-.33.36-.69.06-.53.06-1.52.06-2.72v-5.3l-1.86.02c-.78.01-1.08.1-1.28.4-.14.21-.18.3-.21.39-.04.1-.08.13-.13.13-.04,0-.06-.04-.06-.11,0-.13.25-1.2.28-1.3.03-.08.08-.24.13-.24.09,0,.21.13.55.15.36.04.84.06.99.06h4.7c.4,0,.69-.03.89-.06.19-.03.3-.06.35-.06.06,0,.06.08.06.15,0,.38-.04,1.24-.04,1.38,0,.11-.04.16-.09.16-.06,0-.09-.04-.1-.21v-.14c-.05-.38-.35-.66-1.55-.69l-1.58-.02v5.3Z"/>
        <path class="cls-1" d="M96.55,101.52c0,1.03.01,1.87.06,2.31.04.31.06.51.4.56.15.02.4.05.49.05.08,0,.1.05.1.09,0,.05-.06.09-.19.09-.6,0-1.3-.04-1.37-.04-.05,0-.76.04-1.09.04-.13,0-.18-.03-.18-.09,0-.04.03-.09.09-.09.1,0,.23-.03.33-.05.23-.05.26-.26.3-.58.05-.44.05-1.24.05-2.27v-1.07c0-.05-.03-.06-.06-.06h-4.6s-.06.01-.06.06v1.07c0,1.03,0,1.84.05,2.28.04.31.08.51.4.56.16.02.4.05.5.05.06,0,.09.05.09.09,0,.05-.05.09-.18.09-.61,0-1.32-.04-1.37-.04-.06,0-.76.04-1.1.04-.11,0-.18-.03-.18-.09,0-.04.03-.09.09-.09.1,0,.24-.03.34-.05.21-.05.24-.25.29-.56.06-.44.06-1.28.06-2.31v-1.88c0-1.65,0-1.96-.03-2.29-.03-.36-.09-.54-.45-.59-.09-.01-.28-.02-.38-.02-.04,0-.09-.05-.09-.09,0-.06.05-.09.18-.09.5,0,1.2.02,1.27.02.05,0,.75-.02,1.09-.02.13,0,.18.02.18.09,0,.04-.05.09-.09.09-.08,0-.15,0-.28.02-.3.06-.36.21-.39.59-.01.34-.01.66-.01,2.32v.23c0,.06.03.06.06.06h4.6s.06,0,.06-.06v-.23c0-1.65-.01-1.98-.03-2.32-.03-.36-.08-.54-.44-.59-.09-.01-.28-.02-.38-.02-.05,0-.09-.05-.09-.09,0-.06.05-.09.18-.09.49,0,1.2.02,1.25.02.06,0,.76-.02,1.09-.02.13,0,.19.02.19.09,0,.04-.05.09-.1.09-.08,0-.14,0-.28.02-.29.06-.35.21-.38.59-.03.34-.03.64-.03,2.29v1.88Z"/>
        <path class="cls-1" d="M100.43,99.64c0-1.65,0-1.96-.03-2.29-.03-.36-.09-.54-.45-.59-.09-.01-.28-.02-.38-.02-.04,0-.09-.05-.09-.09,0-.06.05-.09.18-.09.5,0,1.22.02,1.28.02.08,0,2.38.01,2.63,0,.21-.01.41-.05.5-.06.05-.01.1-.05.15-.05.04,0,.05.05.05.1,0,.08-.06.2-.09.5-.01.1-.04.58-.06.7-.01.05-.05.11-.1.11-.06,0-.09-.05-.09-.14,0-.08-.01-.25-.06-.38-.08-.18-.19-.25-.79-.33-.19-.02-1.47-.04-1.59-.04-.05,0-.06.04-.06.11v2.9c0,.08,0,.11.06.11.14,0,1.59,0,1.84-.03.26-.02.43-.04.54-.15.08-.08.13-.14.16-.14s.06.02.06.09-.06.24-.09.59c-.03.21-.05.61-.05.69,0,.09-.03.2-.1.2-.05,0-.08-.04-.08-.1,0-.1,0-.21-.05-.35-.04-.15-.14-.28-.56-.33-.3-.04-1.48-.05-1.67-.05-.06,0-.08.04-.08.08v.89c0,.36-.01,1.6,0,1.82.03.71.23.85,1.32.85.29,0,.82,0,1.1-.11.29-.13.44-.31.5-.74.03-.13.05-.16.11-.16s.08.09.08.16-.09.8-.15,1.03c-.08.28-.19.28-.61.28-.83,0-1.47-.02-1.92-.04-.46-.02-.75-.02-.91-.02-.03,0-.24,0-.48.01-.21.01-.46.03-.64.03-.11,0-.18-.03-.18-.09,0-.04.03-.09.09-.09.1,0,.24-.04.34-.05.21-.04.24-.25.29-.56.06-.44.06-1.28.06-2.31v-1.88Z"/>
        <path class="cls-1" d="M111.69,98.77c0-1.96,0-2.31-.02-2.71-.03-.43-.13-.63-.54-.71-.1-.03-.31-.04-.43-.04-.05,0-.1-.03-.1-.08,0-.08.06-.1.2-.1.56,0,1.32.04,1.42.04.28,0,1-.04,1.58-.04,1.57,0,2.13.53,2.33.71.28.26.63.83.63,1.49,0,1.78-1.3,2.98-3.08,2.98-.06,0-.2,0-.26-.01-.06,0-.14-.02-.14-.09,0-.1.08-.11.34-.11,1.22,0,2.17-.89,2.17-2.04,0-.41-.04-1.25-.7-1.93s-1.43-.63-1.72-.63c-.21,0-.43.03-.54.08-.08.03-.1.11-.1.24v5.15c0,1.2,0,2.19.06,2.72.04.36.11.64.49.69.18.02.45.05.56.05.08,0,.1.04.1.08,0,.06-.06.1-.2.1-.69,0-1.48-.04-1.54-.04-.04,0-.83.04-1.2.04-.14,0-.2-.03-.2-.1,0-.04.03-.08.1-.08.11,0,.26-.03.38-.05.25-.05.31-.33.36-.69.06-.53.06-1.52.06-2.72v-2.21Z"/>
        <path class="cls-1" d="M119.45,99.64c0-1.65,0-1.96-.03-2.29-.03-.36-.09-.54-.45-.59-.09-.01-.28-.02-.38-.02-.04,0-.09-.05-.09-.09,0-.06.05-.09.18-.09.5,0,1.24.02,1.3.02.11,0,1.04-.02,1.38-.02.7,0,1.48.06,2.06.46.28.2.76.71.76,1.45,0,.79-.33,1.55-1.35,2.43.9,1.13,1.67,2.09,2.31,2.76.59.6.95.7,1.23.74.21.04.33.04.39.04s.1.05.1.09c0,.06-.06.09-.26.09h-.69c-.63,0-.9-.06-1.18-.21-.48-.25-.88-.76-1.5-1.57-.46-.58-.95-1.27-1.19-1.55-.05-.05-.08-.06-.15-.06l-1.4-.03s-.08.03-.08.09v.25c0,1.03,0,1.86.05,2.29.04.31.1.51.44.56.15.02.39.05.49.05.08,0,.09.05.09.09,0,.05-.05.09-.18.09-.6,0-1.3-.04-1.35-.04-.01,0-.75.04-1.09.04-.11,0-.18-.03-.18-.09,0-.04.03-.09.09-.09.1,0,.24-.03.34-.05.21-.05.24-.25.29-.56.06-.44.06-1.28.06-2.31v-1.88ZM120.4,100.54c0,.06.03.1.08.14.16.09.73.16,1.22.16.26,0,.56-.01.83-.19.38-.25.66-.81.66-1.63,0-1.33-.73-2.09-1.91-2.09-.33,0-.68.04-.79.06-.05.03-.09.06-.09.13v3.42Z"/>
        <path class="cls-1" d="M128.87,101.52c0,1.03,0,1.87.05,2.31.04.31.08.51.4.56.16.02.4.05.5.05.06,0,.09.05.09.09,0,.05-.05.09-.18.09-.61,0-1.33-.04-1.38-.04-.06,0-.75.04-1.09.04-.11,0-.18-.03-.18-.09,0-.04.03-.09.09-.09.1,0,.24-.03.34-.05.21-.05.25-.25.29-.56.05-.44.06-1.28.06-2.31v-1.88c0-1.65,0-1.96-.03-2.29-.03-.36-.11-.53-.35-.58-.13-.02-.26-.04-.34-.04-.05,0-.09-.05-.09-.09,0-.06.05-.09.18-.09.36,0,1.05.02,1.12.02.05,0,.76-.02,1.1-.02.13,0,.18.02.18.09,0,.04-.05.09-.09.09-.08,0-.15,0-.28.02-.3.06-.36.21-.39.59-.01.34-.01.64-.01,2.29v1.88Z"/>
        <path class="cls-1" d="M135.16,103.22c.64-1.43,2.08-5.06,2.32-5.83.05-.16.1-.31.1-.4s-.04-.19-.15-.23c-.13-.04-.25-.04-.38-.04-.06,0-.13-.04-.13-.09,0-.06.08-.09.25-.09.44,0,.94.02,1.08.02.06,0,.54-.02.86-.02.11,0,.18.02.18.08s-.04.1-.13.1c-.08,0-.33,0-.53.13-.15.1-.33.25-.61.98-.13.3-.66,1.58-1.23,2.88-.68,1.56-1.17,2.71-1.42,3.23-.3.64-.36.8-.48.8-.13,0-.2-.14-.41-.65l-2.71-6.53c-.25-.6-.4-.71-.76-.8-.18-.04-.36-.04-.43-.04s-.09-.06-.09-.1c0-.06.11-.08.29-.08.53,0,1.15.02,1.29.02.11,0,.6-.02,1.03-.02.2,0,.3.02.3.08s-.04.1-.11.1c-.13,0-.3.01-.4.05-.11.05-.13.11-.13.19,0,.14.14.46.3.89l2.08,5.36Z"/>
        <path class="cls-1" d="M142.6,96.77c.14-.35.19-.41.26-.41.11,0,.15.15.26.39.2.45,1.97,4.85,2.64,6.47.4.95.7,1.09.94,1.17.16.05.33.06.44.06.06,0,.14.02.14.09s-.13.09-.25.09c-.16,0-.98,0-1.74-.03-.21-.01-.39-.01-.39-.08,0-.05.03-.05.08-.08.06-.03.18-.11.1-.29l-.99-2.44s-.04-.06-.1-.06h-2.54c-.05,0-.09.03-.11.09l-.63,1.71c-.1.26-.16.53-.16.71,0,.21.19.29.38.29h.1c.09,0,.11.04.11.09,0,.06-.06.09-.16.09-.26,0-.86-.04-.99-.04-.11,0-.66.04-1.12.04-.14,0-.21-.03-.21-.09,0-.05.05-.09.1-.09.08,0,.24-.01.33-.03.5-.06.71-.44.93-.98l2.59-6.67ZM143.83,101.2c.05,0,.05-.02.04-.08l-1.09-2.92c-.06-.16-.13-.16-.19,0l-1.03,2.92c-.01.05,0,.08.04.08h2.23Z"/>
        <path class="cls-1" d="M151.14,101.52c0,1.03,0,1.87.05,2.31.04.31.09.51.43.56.15.02.4.05.5.05.08,0,.09.05.09.09,0,.05-.05.09-.18.09-.6,0-1.3-.04-1.37-.04-.05,0-.82.04-1.14.04-.13,0-.18-.03-.18-.09,0-.04.03-.08.09-.08.1,0,.23-.02.33-.05.23-.05.29-.26.33-.58.05-.44.05-1.28.05-2.31v-4.47l-1.59.02c-.69.01-.95.09-1.12.34-.13.19-.14.26-.18.34-.03.09-.06.1-.11.1-.02,0-.08-.02-.08-.09,0-.11.21-1.07.24-1.15.01-.06.08-.2.11-.2.08,0,.19.09.49.13.31.04.74.05.86.05h4.16c.36,0,.61-.02.79-.05.16-.03.26-.05.31-.05s.05.06.05.13c0,.33-.04,1.09-.04,1.22,0,.09-.05.14-.1.14s-.08-.04-.09-.19v-.11c-.05-.33-.29-.56-1.34-.59l-1.38-.02v4.47Z"/>
        <path class="cls-1" d="M156.38,99.64c0-1.65,0-1.96-.02-2.29-.03-.36-.09-.54-.45-.59-.09-.01-.28-.02-.38-.02-.04,0-.09-.05-.09-.09,0-.06.05-.09.18-.09.5,0,1.22.02,1.28.02.08,0,2.38.01,2.63,0,.21-.01.41-.05.5-.06.05-.01.1-.05.15-.05.04,0,.05.05.05.1,0,.08-.06.2-.09.5-.01.1-.04.58-.06.7-.01.05-.05.11-.1.11-.06,0-.09-.05-.09-.14,0-.08-.01-.25-.06-.38-.08-.18-.19-.25-.79-.33-.19-.02-1.47-.04-1.59-.04-.05,0-.06.04-.06.11v2.9c0,.08,0,.11.06.11.14,0,1.59,0,1.84-.03.26-.02.43-.04.54-.15.08-.08.13-.14.16-.14s.06.02.06.09-.06.24-.09.59c-.02.21-.05.61-.05.69,0,.09-.03.2-.1.2-.05,0-.08-.04-.08-.1,0-.1,0-.21-.05-.35-.04-.15-.14-.28-.56-.33-.3-.04-1.48-.05-1.67-.05-.06,0-.08.04-.08.08v.89c0,.36-.01,1.6,0,1.82.03.71.23.85,1.32.85.29,0,.81,0,1.1-.11.29-.13.44-.31.5-.74.02-.13.05-.16.11-.16s.08.09.08.16-.09.8-.15,1.03c-.08.28-.19.28-.61.28-.83,0-1.47-.02-1.92-.04-.46-.02-.75-.02-.91-.02-.03,0-.24,0-.48.01-.21.01-.46.03-.64.03-.11,0-.17-.03-.17-.09,0-.04.02-.09.09-.09.1,0,.24-.04.34-.05.21-.04.24-.25.29-.56.06-.44.06-1.28.06-2.31v-1.88Z"/>
        <path class="cls-1" d="M171.15,94.96c2.82,0,4.93,1.78,4.93,4.7s-1.98,5.13-5,5.13c-3.43,0-4.86-2.67-4.86-4.93,0-2.03,1.48-4.9,4.94-4.9ZM171.42,104.31c1.13,0,3.46-.65,3.46-4.3,0-3.01-1.83-4.63-3.81-4.63-2.09,0-3.66,1.38-3.66,4.12,0,2.92,1.75,4.8,4.01,4.8Z"/>
        <path class="cls-1" d="M178.82,99.64c0-1.65,0-1.96-.03-2.29-.02-.36-.09-.54-.45-.59-.09-.01-.28-.02-.38-.02-.04,0-.09-.05-.09-.09,0-.06.05-.09.17-.09.5,0,1.19.02,1.25.02.21,0,2.61.01,2.86,0,.21-.01.4-.01.5-.05.06-.01.11-.06.15-.06.05,0,.08.05.08.1,0,.08-.05.2-.09.5-.01.1-.02.58-.05.7-.01.05-.05.11-.1.11s-.09-.05-.09-.13c0-.09-.04-.26-.1-.4s-.33-.31-.75-.31l-1.81-.02c-.06,0-.09.02-.09.11v2.91c0,.06,0,.1.08.1h1.5c.19-.01.35-.01.5-.02.26-.03.41-.06.51-.19.05-.06.1-.11.14-.11.05,0,.06.04.06.09,0,.06-.08.24-.1.59-.03.21-.04.64-.04.71,0,.1-.02.21-.1.21-.06,0-.08-.05-.08-.1-.01-.11-.02-.26-.08-.39-.05-.15-.23-.29-.56-.34-.28-.04-1.58-.02-1.77-.02-.06,0-.08.02-.08.1v.85c0,1.05,0,1.89.05,2.31.04.31.1.51.4.56.16.02.4.05.5.05.06,0,.09.05.09.09,0,.05-.05.09-.18.09-.61,0-1.33-.04-1.38-.04-.06,0-.75.04-1.09.04-.11,0-.18-.03-.18-.09,0-.04.03-.09.09-.09.1,0,.24-.04.34-.05.21-.04.24-.25.29-.56.06-.44.06-1.28.06-2.31v-1.88Z"/>
        <path class="cls-1" d="M185.52,99.64c0-1.65,0-1.96-.02-2.29-.03-.36-.09-.54-.45-.59-.09-.01-.28-.02-.38-.02-.04,0-.09-.05-.09-.09,0-.06.05-.09.18-.09.5,0,1.19.02,1.25.02.21,0,2.61.01,2.86,0,.21-.01.4-.01.5-.05.06-.01.11-.06.15-.06.05,0,.08.05.08.1,0,.08-.05.2-.09.5-.01.1-.03.58-.05.7-.01.05-.05.11-.1.11s-.09-.05-.09-.13c0-.09-.04-.26-.1-.4s-.33-.31-.75-.31l-1.8-.02c-.06,0-.09.02-.09.11v2.91c0,.06,0,.1.08.1h1.5c.19-.01.35-.01.5-.02.26-.03.41-.06.51-.19.05-.06.1-.11.14-.11.05,0,.06.04.06.09,0,.06-.08.24-.1.59-.02.21-.04.64-.04.71,0,.1-.03.21-.1.21-.06,0-.08-.05-.08-.1-.01-.11-.03-.26-.08-.39-.05-.15-.23-.29-.56-.34-.28-.04-1.58-.02-1.77-.02-.06,0-.08.02-.08.1v.85c0,1.05,0,1.89.05,2.31.04.31.1.51.4.56.16.02.4.05.5.05.06,0,.09.05.09.09,0,.05-.05.09-.17.09-.61,0-1.33-.04-1.38-.04-.06,0-.75.04-1.09.04-.11,0-.17-.03-.17-.09,0-.04.02-.09.09-.09.1,0,.24-.04.34-.05.21-.04.24-.25.29-.56.06-.44.06-1.28.06-2.31v-1.88Z"/>
        <path class="cls-1" d="M193.23,101.52c0,1.03,0,1.87.05,2.31.04.31.08.51.4.56.16.02.4.05.5.05.06,0,.09.05.09.09,0,.05-.05.09-.18.09-.61,0-1.33-.04-1.38-.04-.06,0-.75.04-1.09.04-.11,0-.18-.03-.18-.09,0-.04.03-.09.09-.09.1,0,.24-.03.34-.05.21-.05.25-.25.29-.56.05-.44.06-1.28.06-2.31v-1.88c0-1.65,0-1.96-.03-2.29-.02-.36-.11-.53-.35-.58-.13-.02-.26-.04-.34-.04-.05,0-.09-.05-.09-.09,0-.06.05-.09.18-.09.36,0,1.05.02,1.12.02.05,0,.76-.02,1.1-.02.13,0,.17.02.17.09,0,.04-.05.09-.09.09-.08,0-.15,0-.28.02-.3.06-.36.21-.39.59-.01.34-.01.64-.01,2.29v1.88Z"/>
        <path class="cls-1" d="M197.18,103.61c-1.08-.93-1.34-2.14-1.34-3.16,0-.71.26-1.96,1.24-2.91.66-.64,1.67-1.14,3.36-1.14.44,0,1.07.04,1.6.13.41.08.76.15,1.13.16.11,0,.14.05.14.11,0,.09-.02.21-.05.6-.01.35-.01.94-.03,1.09-.01.16-.06.23-.13.23-.08,0-.09-.08-.09-.23,0-.41-.18-.84-.46-1.07-.39-.33-1.19-.59-2.17-.59-1.42,0-2.09.38-2.48.74-.81.75-.99,1.7-.99,2.78,0,2.04,1.62,3.86,3.97,3.86.83,0,1.38-.06,1.82-.5.24-.24.39-.69.43-.89.02-.11.04-.15.11-.15.05,0,.1.08.1.15s-.15,1-.26,1.37c-.06.2-.09.24-.28.31-.45.18-1.28.24-1.99.24-1.65,0-2.77-.39-3.64-1.14Z"/>
        <path class="cls-1" d="M205.97,99.64c0-1.65,0-1.96-.02-2.29-.03-.36-.09-.54-.45-.59-.09-.01-.28-.02-.38-.02-.04,0-.09-.05-.09-.09,0-.06.05-.09.18-.09.5,0,1.22.02,1.28.02.08,0,2.38.01,2.63,0,.21-.01.41-.05.5-.06.05-.01.1-.05.15-.05.04,0,.05.05.05.1,0,.08-.06.2-.09.5-.01.1-.04.58-.06.7-.01.05-.05.11-.1.11-.06,0-.09-.05-.09-.14,0-.08-.01-.25-.06-.38-.08-.18-.19-.25-.79-.33-.19-.02-1.47-.04-1.59-.04-.05,0-.06.04-.06.11v2.9c0,.08,0,.11.06.11.14,0,1.59,0,1.84-.03.26-.02.43-.04.54-.15.08-.08.13-.14.16-.14s.06.02.06.09-.06.24-.09.59c-.02.21-.05.61-.05.69,0,.09-.03.2-.1.2-.05,0-.08-.04-.08-.1,0-.1,0-.21-.05-.35-.04-.15-.14-.28-.56-.33-.3-.04-1.48-.05-1.67-.05-.06,0-.08.04-.08.08v.89c0,.36-.01,1.6,0,1.82.03.71.23.85,1.32.85.29,0,.81,0,1.1-.11.29-.13.44-.31.5-.74.02-.13.05-.16.11-.16s.08.09.08.16-.09.8-.15,1.03c-.08.28-.19.28-.61.28-.83,0-1.47-.02-1.92-.04-.46-.02-.75-.02-.91-.02-.03,0-.24,0-.48.01-.21.01-.46.03-.64.03-.11,0-.17-.03-.17-.09,0-.04.02-.09.09-.09.1,0,.24-.04.34-.05.21-.04.24-.25.29-.56.06-.44.06-1.28.06-2.31v-1.88Z"/>
        <path class="cls-1" d="M220.74,94.96c2.82,0,4.93,1.78,4.93,4.7s-1.98,5.13-5,5.13c-3.43,0-4.86-2.67-4.86-4.93,0-2.03,1.48-4.9,4.94-4.9ZM221,104.31c1.13,0,3.46-.65,3.46-4.3,0-3.01-1.83-4.63-3.81-4.63-2.09,0-3.66,1.38-3.66,4.12,0,2.92,1.75,4.8,4.01,4.8Z"/>
        <path class="cls-1" d="M228.4,99.64c0-1.65,0-1.96-.03-2.29-.02-.36-.09-.54-.45-.59-.09-.01-.28-.02-.38-.02-.04,0-.09-.05-.09-.09,0-.06.05-.09.17-.09.5,0,1.19.02,1.25.02.21,0,2.61.01,2.86,0,.21-.01.4-.01.5-.05.06-.01.11-.06.15-.06.05,0,.08.05.08.1,0,.08-.05.2-.09.5-.01.1-.02.58-.05.7-.01.05-.05.11-.1.11s-.09-.05-.09-.13c0-.09-.04-.26-.1-.4s-.33-.31-.75-.31l-1.81-.02c-.06,0-.09.02-.09.11v2.91c0,.06,0,.1.08.1h1.5c.19-.01.35-.01.5-.02.26-.03.41-.06.51-.19.05-.06.1-.11.14-.11.05,0,.06.04.06.09,0,.06-.08.24-.1.59-.03.21-.04.64-.04.71,0,.1-.02.21-.1.21-.06,0-.08-.05-.08-.1-.01-.11-.02-.26-.08-.39-.05-.15-.23-.29-.56-.34-.28-.04-1.58-.02-1.77-.02-.06,0-.08.02-.08.1v.85c0,1.05,0,1.89.05,2.31.04.31.1.51.4.56.16.02.4.05.5.05.06,0,.09.05.09.09,0,.05-.05.09-.18.09-.61,0-1.33-.04-1.38-.04-.06,0-.75.04-1.09.04-.11,0-.18-.03-.18-.09,0-.04.03-.09.09-.09.1,0,.24-.04.34-.05.21-.04.24-.25.29-.56.06-.44.06-1.28.06-2.31v-1.88Z"/>
      </g>
    </g>
  </g>
</svg>